<?xml version="1.0" ?><!DOCTYPE svg  PUBLIC '-//W3C//DTD SVG 1.1//EN'  'http://www.w3.org/Graphics/SVG/1.1/DTD/svg11.dtd'><svg enable-background="new 0 0 154.631 154.631" height="154.631" id="Layer_1" overflow="visible" version="1.1" viewBox="0 0 154.631 154.631" width="154.631" xml:space="preserve" xmlns="http://www.w3.org/2000/svg" xmlns:xlink="http://www.w3.org/1999/xlink"><g id="icon_2_"><circle cx="77.315" cy="77.315" fill="#5189AF" r="77.315"/><path d="M77.412,44.492c10.721,0,11.998,0.041,16.226,0.233c3.913,0.178,6.041,0.834,7.454,1.383   c1.881,0.728,3.213,1.6,4.627,3.003c1.4,1.407,2.271,2.742,2.999,4.62c0.55,1.414,1.201,3.542,1.38,7.458   c0.192,4.232,0.233,5.501,0.233,16.227c0,10.718-0.041,11.995-0.233,16.223c-0.179,3.913-0.83,6.041-1.38,7.454   c-0.728,1.881-1.599,3.213-2.999,4.627c-1.414,1.4-2.746,2.265-4.627,2.999c-1.413,0.55-3.541,1.201-7.454,1.38   c-4.228,0.192-5.505,0.233-16.226,0.233c-10.722,0-11.992-0.041-16.227-0.233c-3.912-0.179-6.04-0.83-7.454-1.38   c-1.874-0.728-3.212-1.599-4.62-2.999c-1.407-1.414-2.272-2.746-3-4.627c-0.549-1.413-1.208-3.541-1.386-7.454   c-0.192-4.228-0.233-5.505-0.233-16.223c0-10.725,0.041-11.995,0.233-16.227c0.178-3.916,0.837-6.043,1.386-7.458   c0.728-1.877,1.593-3.212,3-4.62c1.407-1.403,2.746-2.275,4.62-3.003c1.414-0.549,3.542-1.205,7.454-1.383   C65.42,44.533,66.69,44.492,77.412,44.492 M77.412,37.257c-10.9,0-12.273,0.045-16.556,0.24c-4.27,0.196-7.194,0.875-9.747,1.867   c-2.636,1.026-4.88,2.399-7.111,4.633c-2.238,2.23-3.61,4.472-4.633,7.111c-0.995,2.557-1.668,5.474-1.867,9.75   c-0.199,4.283-0.24,5.649-0.24,16.556c0,10.91,0.042,12.27,0.24,16.553c0.199,4.276,0.872,7.193,1.867,9.746   c1.023,2.649,2.396,4.888,4.633,7.118c2.23,2.23,4.475,3.604,7.111,4.634c2.553,0.988,5.478,1.668,9.747,1.866   c4.283,0.192,5.656,0.24,16.556,0.24c10.906,0,12.272-0.048,16.556-0.24c4.276-0.198,7.193-0.878,9.746-1.866   c2.643-1.03,4.888-2.403,7.111-4.634c2.237-2.23,3.61-4.469,4.641-7.118c0.988-2.553,1.667-5.463,1.866-9.746   c0.192-4.283,0.233-5.643,0.233-16.553c0-10.907-0.041-12.273-0.233-16.556c-0.199-4.276-0.878-7.193-1.866-9.75   c-1.03-2.639-2.403-4.88-4.641-7.111c-2.224-2.234-4.469-3.607-7.111-4.633c-2.553-0.992-5.47-1.671-9.746-1.867   C89.685,37.302,88.318,37.257,77.412,37.257 M77.412,56.792c-11.388,0-20.62,9.232-20.62,20.623s9.232,20.616,20.62,20.616   c11.394,0,20.619-9.226,20.619-20.616S88.806,56.792,77.412,56.792 M77.412,90.796c-7.393,0-13.385-5.985-13.385-13.381   c0-7.396,5.992-13.388,13.385-13.388c7.398,0,13.384,5.992,13.384,13.388C90.796,84.811,84.811,90.796,77.412,90.796    M103.666,55.979c0-2.663-2.155-4.818-4.818-4.818c-2.656,0-4.818,2.155-4.818,4.818c0,2.66,2.162,4.818,4.818,4.818   C101.511,60.797,103.666,58.639,103.666,55.979" fill="#FFFFFF"/></g></svg>