<svg viewBox="0 0 48 48" xmlns="http://www.w3.org/2000/svg" xmlns:xlink="http://www.w3.org/1999/xlink" width="48" height="48">
<defs>



 <path fill="#29d9c2" id="i-419" d="M48,40c0,1.41-0.719,2.129-1.289,2.709l-3,3c-2.1,2.09-3.301,2.271-4.66,2.291H38.99c-1.721,0-12.93-2.49-24.7-14.291 C2.48,21.939,0,10.721,0,9c0-1.371,0.17-2.58,2.291-4.711l3-3C5.871,0.721,6.59,0,8,0c1.25,0,2.17,0.471,2.82,1.439 c3,4.5,4.14,6.18,4.71,7.02c0.58,0.852,0.58,0.852,1.31,2c0.96,1.5,0.85,3-0.3,4.221c-2.45,2.619-2.02,5.131-1.65,5.869 c0.939,1.871,2.23,4.16,5.819,7.74c2.88,2.891,4.75,3.82,6.741,4.82c0.34,0.16,2.41,0.99,5.92-1.879 c1.25-1.031,2.689-1.061,4.189-0.061l9,6.01C47.531,37.83,48,38.75,48,40z"/> 
</defs>

<use x="0" y="0" xlink:href="#i-419"/>

</svg>