<?xml version="1.0" ?><svg fill="none" height="1080" viewBox="0 0 1080 1080" width="1080" xmlns="http://www.w3.org/2000/svg"><path d="M729.796 386.21L662.016 705.86C656.902 728.42 643.567 734.032 624.616 723.408L521.342 647.304L471.512 695.231C465.998 700.745 461.384 705.359 450.756 705.359L458.176 600.178L649.583 427.219C657.907 419.799 647.779 415.688 636.649 423.108L400.021 572.103L298.151 540.22C275.992 533.3 275.593 518.06 302.763 507.433L701.219 353.924C719.667 347.007 735.81 358.035 729.796 386.21Z" fill="url(#paint0_linear)"/><rect height="760" rx="380" stroke="url(#paint1_linear)" stroke-width="27" width="760" x="157.5" y="159.5"/><defs><linearGradient gradientUnits="userSpaceOnUse" id="paint0_linear" x1="468.5" x2="710.864" y1="286.5" y2="883.047"><stop stop-color="#6BBFEC" stop-opacity="0.7"/><stop offset="1" stop-color="#21A0E1"/></linearGradient><linearGradient gradientUnits="userSpaceOnUse" id="paint1_linear" x1="346" x2="700.902" y1="191" y2="900.799"><stop stop-color="#77C4ED"/><stop offset="1" stop-color="#20A0E1"/></linearGradient></defs></svg>